# Blender v2.79 (sub 0) OBJ File: 'EllkI Snow.blend'
# www.blender.org
mtllib tree3.mtl
o Body_bGeometry
v -1.004987 0.636572 -0.352637
v -0.265494 3.295416 0.184713
v -0.444044 0.559815 -0.920441
v -0.258236 3.298832 0.179777
v 0.329886 0.655926 -0.762408
v -0.250250 3.295529 0.180293
v 0.887230 0.462263 -0.212376
v -0.245489 3.294752 0.186524
v 0.729959 0.508968 0.569900
v -0.247105 3.293932 0.194543
v 0.171730 0.335400 1.118245
v -0.257054 3.293705 0.198652
v -0.605432 0.489917 0.979085
v -0.267441 3.296310 0.197253
v -1.159887 0.432846 0.411053
v -0.269999 3.294752 0.191723
v -0.829030 1.136360 -0.229227
v -0.662405 1.553413 -0.126977
v -0.543721 1.944646 -0.063234
v -0.445784 2.311248 -0.023088
v -0.364769 2.682559 0.051759
v -0.282057 2.779127 -0.038917
v -0.280307 2.384929 -0.185969
v -0.294786 1.989101 -0.296339
v -0.323305 1.555639 -0.444894
v -0.392005 1.100444 -0.660183
v -0.167023 2.689709 -0.028793
v -0.089595 2.327532 -0.156440
v 0.008804 1.968652 -0.243112
v 0.101704 1.571047 -0.372832
v 0.192481 1.154892 -0.554740
v -0.098415 2.764750 0.063294
v 0.030445 2.365917 -0.008934
v 0.227552 1.959522 -0.006179
v 0.406986 1.498800 -0.049590
v 0.611456 1.026837 -0.124848
v -0.136211 2.663491 0.182635
v -0.027513 2.287268 0.210897
v 0.148565 1.907954 0.317923
v 0.310618 1.485342 0.397614
v 0.488311 1.040147 0.475119
v -0.223507 2.741916 0.287251
v -0.178557 2.326235 0.391735
v -0.075889 1.904609 0.571309
v -0.008830 1.423475 0.726670
v 0.058261 0.928494 0.904344
v -0.328730 2.659595 0.261644
v -0.360322 2.275178 0.362447
v -0.383611 1.893015 0.509394
v -0.440069 1.470538 0.648460
v -0.532560 1.024836 0.799013
v -0.407437 2.756366 0.184760
v -0.492472 2.343359 0.210753
v -0.590848 1.929761 0.282808
v -0.731568 1.478054 0.333249
v -0.941279 1.001816 0.367299
v -0.420347 2.629504 0.011260
v -0.266534 2.731058 -0.149435
v -0.061987 2.645197 -0.122072
v 0.051164 2.709662 0.025371
v -0.007897 2.600488 0.238332
v -0.158380 2.668891 0.417201
v -0.334077 2.591752 0.385826
v -0.480098 2.690388 0.239784
v -0.518203 2.256685 -0.087337
v -0.276489 2.335670 -0.328069
v 0.007272 2.286157 -0.280190
v 0.196030 2.319221 -0.059729
v 0.078695 2.228145 0.244585
v -0.111433 2.260997 0.520661
v -0.391217 2.209724 0.473081
v -0.586276 2.274535 0.250154
v -0.670788 1.925914 -0.131140
v -0.324302 1.976791 -0.475978
v 0.119182 1.959071 -0.399052
v 0.436703 1.925758 -0.051735
v 0.324396 1.867757 0.422723
v -0.033930 1.790730 0.878761
v -0.456942 1.851243 0.697453
v -0.760506 1.892306 0.363941
v -0.912904 1.530037 -0.262523
v -0.427523 1.535294 -0.747307
v 0.217975 1.554394 -0.639193
v 0.667940 1.455959 -0.159241
v 0.528455 1.426201 0.515624
v 0.044551 1.344605 1.004902
v -0.600224 1.407027 0.892103
v -1.044819 1.423602 0.412818
v -1.143008 1.114003 -0.394145
v -0.494734 1.088729 -1.050899
v 0.394338 1.139506 -0.885468
v 1.034856 0.976354 -0.236763
v 0.848926 0.967584 0.669547
v 0.201618 0.828103 1.319831
v -0.697441 0.944918 1.155353
v -1.326754 0.940516 0.503020
v -0.616845 0.533588 -1.534909
v 0.622252 0.631264 -1.272379
v 1.525968 0.376867 -0.397401
v 1.267457 0.397532 0.851081
v 0.377646 0.173205 1.738503
v -0.867249 0.367081 1.498459
v -1.765118 0.329926 0.601069
v -1.505719 0.600495 -0.621990
vn -0.7726 0.3245 -0.5457
vn 0.3069 0.4734 -0.8256
vn 0.5911 0.4763 -0.6509
vn 0.8589 0.3236 0.3969
vn 0.7693 0.3085 0.5595
vn -0.2728 0.2757 0.9217
vn 0.0652 0.9889 0.1333
vn -0.5992 0.2634 0.7560
vn -0.9016 0.2907 -0.3203
vn -0.0176 -0.9944 -0.1042
vn -0.6292 0.7760 0.0442
vn -0.6728 0.7398 0.0103
vn -0.7426 0.6677 -0.0509
vn -0.8543 0.4950 -0.1588
vn -0.8943 0.3500 -0.2787
vn -0.4923 0.7449 0.4502
vn -0.5061 0.7139 0.4840
vn -0.5370 0.6443 0.5445
vn -0.5433 0.5702 0.6162
vn -0.5803 0.3664 0.7273
vn -0.0112 0.7354 0.6775
vn -0.0436 0.7007 0.7121
vn -0.1099 0.6178 0.7786
vn -0.2485 0.6230 0.7417
vn -0.3027 0.3978 0.8661
vn 0.3560 0.7557 0.5497
vn 0.4177 0.7158 0.5595
vn 0.5370 0.6106 0.5820
vn 0.5688 0.6574 0.4942
vn 0.7861 0.4251 0.4486
vn 0.5989 0.7934 0.1091
vn 0.6523 0.7433 0.1482
vn 0.7459 0.6306 0.2145
vn 0.6858 0.6636 0.2988
vn 0.7764 0.4162 0.4732
vn 0.5084 0.8155 -0.2763
vn 0.5403 0.7701 -0.3392
vn 0.5848 0.6792 -0.4435
vn 0.5812 0.6257 -0.5203
vn 0.5271 0.5692 -0.6310
vn 0.0441 0.8269 -0.5606
vn 0.0726 0.7814 -0.6197
vn 0.1209 0.6987 -0.7051
vn 0.2012 0.5827 -0.7874
vn 0.3064 0.5575 -0.7716
vn -0.3806 0.8145 -0.4379
vn -0.4419 0.7667 -0.4658
vn -0.5341 0.6824 -0.4991
vn -0.6675 0.5021 -0.5499
vn -0.7528 0.3895 -0.5307
vn 0.6423 -0.6407 0.4207
vn -0.0705 -0.7843 -0.6164
vn 0.5010 -0.7016 -0.5067
vn -0.5534 -0.8322 -0.0331
vn -0.2899 -0.7681 -0.5709
vn -0.0553 -0.8440 0.5335
vn -0.4877 -0.8667 0.1052
vn 0.7521 -0.6223 0.2172
vn 0.5342 -0.8130 0.2315
vn -0.2491 -0.9416 0.2266
vn -0.1257 -0.9488 0.2897
vn -0.3550 -0.8481 -0.3933
vn -0.4447 -0.8743 -0.1946
vn 0.2658 -0.8288 -0.4924
vn 0.2587 -0.8167 -0.5159
vn 0.5679 -0.8022 0.1842
vn 0.1720 -0.9850 0.0147
vn -0.0598 -0.9969 0.0506
vn -0.1141 -0.9929 0.0326
vn -0.1603 -0.9720 -0.1718
vn -0.1831 -0.9487 -0.2579
vn 0.0351 -0.9541 -0.2975
vn 0.0834 -0.9738 -0.2113
vn 0.1848 -0.9824 -0.0266
vn 0.0592 -0.9969 0.0515
vn 0.0212 -0.9976 0.0653
vn -0.1873 -0.9818 -0.0325
vn -0.2063 -0.9751 -0.0809
vn -0.0996 -0.9589 -0.2658
vn -0.0494 -0.9609 -0.2723
vn 0.1369 -0.9781 -0.1565
vn 0.1483 -0.9803 -0.1307
vn 0.0029 -0.9983 0.0590
vn 0.0627 -0.9970 0.0461
vn -0.1715 -0.9805 -0.0963
vn -0.1521 -0.9880 -0.0282
vn -0.0270 -0.9674 -0.2520
vn -0.0971 -0.9686 -0.2290
vn 0.1477 -0.9821 -0.1166
vn 0.1242 -0.9764 -0.1767
vn -0.0152 -0.9965 0.0818
vn 0.0845 -0.9950 0.0540
vn -0.1949 -0.9750 -0.1067
vn -0.1650 -0.9863 -0.0011
vn -0.0138 -0.9599 -0.2800
vn -0.1195 -0.9618 -0.2464
vn 0.1694 -0.9800 -0.1048
vn 0.1364 -0.9696 -0.2030
usemtl None
s off
f 57//1 2//1 4//1 58//1
f 58//2 4//2 6//2 59//2
f 59//3 6//3 8//3 60//3
f 60//4 8//4 10//4 61//4
f 61//5 10//5 12//5 62//5
f 62//6 12//6 14//6 63//6
f 4//7 2//7 16//7 14//7 12//7 10//7 8//7 6//7
f 63//8 14//8 16//8 64//8
f 64//9 16//9 2//9 57//9
f 1//10 3//10 5//10 7//10 9//10 11//10 13//10 15//10
f 103//11 56//11 17//11 104//11
f 96//12 55//12 18//12 89//12
f 88//13 54//13 19//13 81//13
f 80//14 53//14 20//14 73//14
f 72//15 52//15 21//15 65//15
f 102//16 51//16 56//16 103//16
f 95//17 50//17 55//17 96//17
f 87//18 49//18 54//18 88//18
f 79//19 48//19 53//19 80//19
f 71//20 47//20 52//20 72//20
f 101//21 46//21 51//21 102//21
f 94//22 45//22 50//22 95//22
f 86//23 44//23 49//23 87//23
f 78//24 43//24 48//24 79//24
f 70//25 42//25 47//25 71//25
f 100//26 41//26 46//26 101//26
f 93//27 40//27 45//27 94//27
f 85//28 39//28 44//28 86//28
f 77//29 38//29 43//29 78//29
f 69//30 37//30 42//30 70//30
f 99//31 36//31 41//31 100//31
f 92//32 35//32 40//32 93//32
f 84//33 34//33 39//33 85//33
f 76//34 33//34 38//34 77//34
f 68//35 32//35 37//35 69//35
f 98//36 31//36 36//36 99//36
f 91//37 30//37 35//37 92//37
f 83//38 29//38 34//38 84//38
f 75//39 28//39 33//39 76//39
f 67//40 27//40 32//40 68//40
f 97//41 26//41 31//41 98//41
f 90//42 25//42 30//42 91//42
f 82//43 24//43 29//43 83//43
f 74//44 23//44 28//44 75//44
f 66//45 22//45 27//45 67//45
f 104//46 17//46 26//46 97//46
f 89//47 18//47 25//47 90//47
f 81//48 19//48 24//48 82//48
f 73//49 20//49 23//49 74//49
f 65//50 21//50 22//50 66//50
f 52//51 64//51 57//51 21//51
f 47//52 63//52 64//52 52//52
f 42//53 62//53 63//53 47//53
f 37//54 61//54 62//54 42//54
f 32//55 60//55 61//55 37//55
f 27//56 59//56 60//56 32//56
f 22//57 58//57 59//57 27//57
f 21//58 57//58 58//58 22//58
f 20//59 65//59 66//59 23//59
f 23//60 66//60 67//60 28//60
f 28//61 67//61 68//61 33//61
f 33//62 68//62 69//62 38//62
f 38//63 69//63 70//63 43//63
f 43//64 70//64 71//64 48//64
f 48//65 71//65 72//65 53//65
f 53//66 72//66 65//66 20//66
f 19//67 73//67 74//67 24//67
f 24//68 74//68 75//68 29//68
f 29//69 75//69 76//69 34//69
f 34//70 76//70 77//70 39//70
f 39//71 77//71 78//71 44//71
f 44//72 78//72 79//72 49//72
f 49//73 79//73 80//73 54//73
f 54//74 80//74 73//74 19//74
f 18//75 81//75 82//75 25//75
f 25//76 82//76 83//76 30//76
f 30//77 83//77 84//77 35//77
f 35//78 84//78 85//78 40//78
f 40//79 85//79 86//79 45//79
f 45//80 86//80 87//80 50//80
f 50//81 87//81 88//81 55//81
f 55//82 88//82 81//82 18//82
f 17//83 89//83 90//83 26//83
f 26//84 90//84 91//84 31//84
f 31//85 91//85 92//85 36//85
f 36//86 92//86 93//86 41//86
f 41//87 93//87 94//87 46//87
f 46//88 94//88 95//88 51//88
f 51//89 95//89 96//89 56//89
f 56//90 96//90 89//90 17//90
f 1//91 104//91 97//91 3//91
f 3//92 97//92 98//92 5//92
f 5//93 98//93 99//93 7//93
f 7//94 99//94 100//94 9//94
f 9//95 100//95 101//95 11//95
f 11//96 101//96 102//96 13//96
f 13//97 102//97 103//97 15//97
f 15//98 103//98 104//98 1//98
o Trunk_tGeometry
v -0.525678 0.010850 0.421471
v -0.437611 0.835053 0.268950
v -0.525678 0.010850 -0.357899
v -0.437611 0.835053 -0.180644
v 0.253691 0.010850 0.421471
v 0.011982 0.835053 0.268950
v 0.253691 0.010850 -0.357899
v 0.011982 0.835053 -0.180644
vn -0.9943 0.1062 0.0000
vn 0.0000 0.2103 -0.9776
vn 0.9596 0.2814 0.0000
vn 0.0000 0.1820 0.9833
vn 0.0000 -1.0000 0.0000
vn 0.0000 1.0000 0.0000
usemtl None
s off
f 105//99 106//99 108//99 107//99
f 107//100 108//100 112//100 111//100
f 111//101 112//101 110//101 109//101
f 109//102 110//102 106//102 105//102
f 107//103 111//103 109//103 105//103
f 112//104 108//104 106//104 110//104
